HIERARCHY
ROOT newVegas:Hips
{
	OFFSET 0.000000 96.479958 0.000000
	CHANNELS 6 Xposition Yposition Zposition Xrotation Yrotation Zrotation
	JOINT newVegas:Pelvis
	{
		OFFSET 0.000000 0.000000 0.000000
		CHANNELS 3 Xrotation Yrotation Zrotation
		JOINT newVegas:LeftUpLeg
		{
			OFFSET 18.735201 -5.666702 -4.541200
			CHANNELS 3 Xrotation Yrotation Zrotation
			JOINT newVegas:LeftLeg
			{
				OFFSET -0.021200 -31.938179 0.493100
				CHANNELS 3 Xrotation Yrotation Zrotation
				JOINT newVegas:LeftFoot
				{
					OFFSET 0.021200 -31.938179 -4.336299
					CHANNELS 3 Xrotation Yrotation Zrotation
					JOINT newVegas:LeftToeBase
					{
						OFFSET 0.943001 -26.722000 15.023500
						CHANNELS 3 Xrotation Yrotation Zrotation
						End Site
						{
							OFFSET 0.000000 30.670183 0.000000
						}
					}
				}
				JOINT newVegas:Left_PantLeg
				{
					OFFSET 0.663870 -9.044666 -1.108900
					CHANNELS 3 Xrotation Yrotation Zrotation
					End Site
					{
						OFFSET 1.415995 20.635357 0.000000
					}
				}
			}
		}
		JOINT newVegas:RightUpLeg
		{
			OFFSET -18.735201 -5.666702 -4.541200
			CHANNELS 3 Xrotation Yrotation Zrotation
			JOINT newVegas:RightLeg
			{
				OFFSET 0.018946 -31.938133 0.493100
				CHANNELS 3 Xrotation Yrotation Zrotation
				JOINT newVegas:RightFoot
				{
					OFFSET -0.018946 -31.938126 -4.336299
					CHANNELS 3 Xrotation Yrotation Zrotation
					JOINT newVegas:RightToeBase
					{
						OFFSET -0.943001 -26.722004 15.023500
						CHANNELS 3 Xrotation Yrotation Zrotation
						End Site
						{
							OFFSET 0.000000 30.670187 0.000000
						}
					}
				}
				JOINT newVegas:Right_PantLeg
				{
					OFFSET -0.661674 -9.044716 -1.108900
					CHANNELS 3 Xrotation Yrotation Zrotation
					End Site
					{
						OFFSET -1.415958 20.635269 0.000000
					}
				}
			}
		}
	}
	JOINT newVegas:Spine
	{
		OFFSET 0.000000 10.199997 -0.299500
		CHANNELS 3 Xrotation Yrotation Zrotation
		JOINT newVegas:Spine1
		{
			OFFSET 0.000000 11.900002 -1.516600
			CHANNELS 3 Xrotation Yrotation Zrotation
			JOINT newVegas:Spine2
			{
				OFFSET 0.000000 13.600006 -2.842500
				CHANNELS 3 Xrotation Yrotation Zrotation
				JOINT newVegas:Neck
				{
					OFFSET 0.000000 9.624100 -2.890100
					CHANNELS 3 Xrotation Yrotation Zrotation
					JOINT newVegas:Head
					{
						OFFSET 0.000000 14.068802 -1.351900
						CHANNELS 3 Xrotation Yrotation Zrotation
						JOINT newVegas:Hair_Back
						{
							OFFSET 0.000000 3.231903 -17.524799
							CHANNELS 3 Xrotation Yrotation Zrotation
							End Site
							{
								OFFSET 0.000000 19.849884 0.000000
							}
						}
						JOINT newVegas:Hair_Front
						{
							OFFSET 0.000000 31.260406 4.573800
							CHANNELS 3 Xrotation Yrotation Zrotation
							JOINT newVegas:Hair_Front1
							{
								OFFSET 0.000000 2.284103 11.993300
								CHANNELS 3 Xrotation Yrotation Zrotation
								JOINT newVegas:Hair_Front2
								{
									OFFSET 0.000000 2.284103 11.993300
									CHANNELS 3 Xrotation Yrotation Zrotation
									End Site
									{
										OFFSET 0.000000 12.208862 0.000000
									}
								}
							}
						}
						JOINT newVegas:Jowel
						{
							OFFSET 0.000000 -7.458206 6.864100
							CHANNELS 3 Xrotation Yrotation Zrotation
							End Site
							{
								OFFSET 0.000000 19.849884 0.000000
							}
						}
					}
				}
				JOINT newVegas:LeftShoulder
				{
					OFFSET 15.263000 10.923401 -0.547700
					CHANNELS 3 Xrotation Yrotation Zrotation
					JOINT newVegas:LeftArm
					{
						OFFSET 25.438599 -2.830597 -13.032500
						CHANNELS 3 Xrotation Yrotation Zrotation
						JOINT newVegas:LeftForeArm
						{
							OFFSET 29.960503 0.000000 0.000000
							CHANNELS 3 Xrotation Yrotation Zrotation
							JOINT newVegas:LeftHand
							{
								OFFSET 27.849251 0.000000 0.000000
								CHANNELS 3 Xrotation Yrotation Zrotation
								JOINT newVegas:LeftHandThumb1
								{
									OFFSET 4.487587 -3.305161 6.305391
									CHANNELS 3 Xrotation Yrotation Zrotation
									JOINT newVegas:LeftHandThumb2
									{
										OFFSET 5.480453 -3.164139 3.164143
										CHANNELS 3 Xrotation Yrotation Zrotation
										JOINT newVegas:LeftHandThumb3
										{
											OFFSET 5.159721 -2.978973 2.978967
											CHANNELS 3 Xrotation Yrotation Zrotation
											End Site
											{
												OFFSET 2.494507 5.926697 1.738678
											}
										}
									}
								}
								JOINT newVegas:LeftHandIndex1
								{
									OFFSET 18.578728 -0.527832 5.208049
									CHANNELS 3 Xrotation Yrotation Zrotation
									JOINT newVegas:LeftHandIndex2
									{
										OFFSET 3.192009 0.000000 0.000000
										CHANNELS 3 Xrotation Yrotation Zrotation
										JOINT newVegas:LeftHandIndex3
										{
											OFFSET 3.835129 0.000000 0.000000
											CHANNELS 3 Xrotation Yrotation Zrotation
											End Site
											{
												OFFSET -0.034599 3.816971 0.371180
											}
										}
									}
								}
								JOINT newVegas:LeftHandMiddle1
								{
									OFFSET 18.476105 0.000000 0.000000
									CHANNELS 3 Xrotation Yrotation Zrotation
									JOINT newVegas:LeftHandMiddle2
									{
										OFFSET 3.324875 0.000000 0.000000
										CHANNELS 3 Xrotation Yrotation Zrotation
										JOINT newVegas:LeftHandMiddle3
										{
											OFFSET 4.596550 0.000000 0.000000
											CHANNELS 3 Xrotation Yrotation Zrotation
											End Site
											{
												OFFSET 0.057701 4.578827 0.399218
											}
										}
									}
								}
								JOINT newVegas:LeftHandRing1
								{
									OFFSET 17.732719 0.121887 -4.201567
									CHANNELS 3 Xrotation Yrotation Zrotation
									JOINT newVegas:LeftHandRing2
									{
										OFFSET 2.733170 0.000000 0.000000
										CHANNELS 3 Xrotation Yrotation Zrotation
										JOINT newVegas:LeftHandRing3
										{
											OFFSET 3.178268 0.000000 0.000000
											CHANNELS 3 Xrotation Yrotation Zrotation
											End Site
											{
												OFFSET 0.119102 3.170624 0.185394
											}
										}
									}
								}
								JOINT newVegas:LeftHandPinky1
								{
									OFFSET 15.989624 -0.606689 -7.535461
									CHANNELS 3 Xrotation Yrotation Zrotation
									JOINT newVegas:LeftHandPinky2
									{
										OFFSET 2.538986 0.000000 0.000000
										CHANNELS 3 Xrotation Yrotation Zrotation
										JOINT newVegas:LeftHandPinky3
										{
											OFFSET 2.593102 0.000000 0.000000
											CHANNELS 3 Xrotation Yrotation Zrotation
											End Site
											{
												OFFSET -0.150902 2.584198 0.152708
											}
										}
									}
								}
							}
							JOINT newVegas:Left_Sleeve
							{
								OFFSET 0.267448 -0.649796 0.577675
								CHANNELS 3 Xrotation Yrotation Zrotation
								End Site
								{
									OFFSET 0.000000 15.991241 0.000000
								}
							}
							JOINT newVegas:Left_CapeC
							{
								OFFSET 15.715958 -8.608795 -6.935905
								CHANNELS 3 Xrotation Yrotation Zrotation
								JOINT newVegas:Left_CapeC1
								{
									OFFSET 0.000000 -8.688499 0.000000
									CHANNELS 3 Xrotation Yrotation Zrotation
									End Site
									{
										OFFSET 0.000000 8.688499 0.000000
									}
								}
							}
						}
						JOINT newVegas:Left_CapeB
						{
							OFFSET 26.118385 -8.608795 -7.079235
							CHANNELS 3 Xrotation Yrotation Zrotation
							JOINT newVegas:Left_CapeB1
							{
								OFFSET 0.000000 -8.688499 0.000000
								CHANNELS 3 Xrotation Yrotation Zrotation
								End Site
								{
									OFFSET 0.000000 8.688499 0.000000
								}
							}
						}
						JOINT newVegas:Left_CapeA
						{
							OFFSET 5.115639 -8.608795 -10.395809
							CHANNELS 3 Xrotation Yrotation Zrotation
							JOINT newVegas:Left_CapeA1
							{
								OFFSET 0.000000 -8.688499 0.000000
								CHANNELS 3 Xrotation Yrotation Zrotation
								End Site
								{
									OFFSET 0.000000 8.688499 0.000000
								}
							}
						}
					}
				}
				JOINT newVegas:RightShoulder
				{
					OFFSET -15.263000 10.923401 -0.547700
					CHANNELS 3 Xrotation Yrotation Zrotation
					JOINT newVegas:RightArm
					{
						OFFSET -25.438599 -2.830597 -13.032500
						CHANNELS 3 Xrotation Yrotation Zrotation
						JOINT newVegas:RightForeArm
						{
							OFFSET -29.960503 0.000000 0.000000
							CHANNELS 3 Xrotation Yrotation Zrotation
							JOINT newVegas:RightHand
							{
								OFFSET -27.849251 0.000000 0.000000
								CHANNELS 3 Xrotation Yrotation Zrotation
								JOINT newVegas:RightHandThumb1
								{
									OFFSET -4.487587 -3.305161 6.305391
									CHANNELS 3 Xrotation Yrotation Zrotation
									JOINT newVegas:RightHandThumb2
									{
										OFFSET -5.480453 -3.164139 3.164143
										CHANNELS 3 Xrotation Yrotation Zrotation
										JOINT newVegas:RightHandThumb3
										{
											OFFSET -5.159721 -2.978973 2.978967
											CHANNELS 3 Xrotation Yrotation Zrotation
											End Site
											{
												OFFSET -2.494507 5.926697 1.738678
											}
										}
									}
								}
								JOINT newVegas:RightHandIndex1
								{
									OFFSET -18.578728 -0.527832 5.208049
									CHANNELS 3 Xrotation Yrotation Zrotation
									JOINT newVegas:RightHandIndex2
									{
										OFFSET -3.192009 0.000000 0.000000
										CHANNELS 3 Xrotation Yrotation Zrotation
										JOINT newVegas:RightHandIndex3
										{
											OFFSET -3.835129 0.000000 0.000000
											CHANNELS 3 Xrotation Yrotation Zrotation
											End Site
											{
												OFFSET 0.034599 3.816971 0.371180
											}
										}
									}
								}
								JOINT newVegas:RightHandMiddle1
								{
									OFFSET -18.476105 0.000000 0.000000
									CHANNELS 3 Xrotation Yrotation Zrotation
									JOINT newVegas:RightHandMiddle2
									{
										OFFSET -3.324875 0.000000 0.000000
										CHANNELS 3 Xrotation Yrotation Zrotation
										JOINT newVegas:RightHandMiddle3
										{
											OFFSET -4.596550 0.000000 0.000000
											CHANNELS 3 Xrotation Yrotation Zrotation
											End Site
											{
												OFFSET -0.057701 4.578827 0.399218
											}
										}
									}
								}
								JOINT newVegas:RightHandRing1
								{
									OFFSET -17.732719 0.121887 -4.201567
									CHANNELS 3 Xrotation Yrotation Zrotation
									JOINT newVegas:RightHandRing2
									{
										OFFSET -2.733170 0.000000 0.000000
										CHANNELS 3 Xrotation Yrotation Zrotation
										JOINT newVegas:RightHandRing3
										{
											OFFSET -3.178268 0.000000 0.000000
											CHANNELS 3 Xrotation Yrotation Zrotation
											End Site
											{
												OFFSET -0.119102 3.170624 0.185394
											}
										}
									}
								}
								JOINT newVegas:RightHandPinky1
								{
									OFFSET -15.989624 -0.606689 -7.535461
									CHANNELS 3 Xrotation Yrotation Zrotation
									JOINT newVegas:RightHandPinky2
									{
										OFFSET -2.538986 0.000000 0.000000
										CHANNELS 3 Xrotation Yrotation Zrotation
										JOINT newVegas:RightHandPinky3
										{
											OFFSET -2.593102 0.000000 0.000000
											CHANNELS 3 Xrotation Yrotation Zrotation
											End Site
											{
												OFFSET 0.150902 2.584198 0.152708
											}
										}
									}
								}
							}
							JOINT newVegas:Right_CapeC
							{
								OFFSET -15.715958 -8.608795 -6.935905
								CHANNELS 3 Xrotation Yrotation Zrotation
								JOINT newVegas:Right_CapeC1
								{
									OFFSET 0.000000 -8.688499 0.000000
									CHANNELS 3 Xrotation Yrotation Zrotation
									End Site
									{
										OFFSET 0.000000 8.688499 0.000000
									}
								}
							}
							JOINT newVegas:Right_Sleeve
							{
								OFFSET -0.267448 -0.649994 0.577675
								CHANNELS 3 Xrotation Yrotation Zrotation
								End Site
								{
									OFFSET 0.000000 15.991302 0.000000
								}
							}
						}
						JOINT newVegas:Right_CapeA
						{
							OFFSET -5.115540 -8.608795 -10.395824
							CHANNELS 3 Xrotation Yrotation Zrotation
							JOINT newVegas:Right_CapeA1
							{
								OFFSET 0.000000 -8.688499 0.000000
								CHANNELS 3 Xrotation Yrotation Zrotation
								End Site
								{
									OFFSET 0.000000 8.688499 0.000000
								}
							}
						}
						JOINT newVegas:Right_CapeB
						{
							OFFSET -26.118187 -8.608795 -7.079266
							CHANNELS 3 Xrotation Yrotation Zrotation
							JOINT newVegas:Right_CapeB1
							{
								OFFSET 0.000000 -8.688499 0.000000
								CHANNELS 3 Xrotation Yrotation Zrotation
								End Site
								{
									OFFSET 0.000000 8.688499 0.000000
								}
							}
						}
					}
				}
				JOINT newVegas:Left_Collar
				{
					OFFSET 18.625099 8.655502 8.828100
					CHANNELS 3 Xrotation Yrotation Zrotation
					JOINT newVegas:Left_Collar1
					{
						OFFSET 14.783401 10.540405 -1.259500
						CHANNELS 3 Xrotation Yrotation Zrotation
						End Site
						{
							OFFSET 0.000000 18.199875 0.000000
						}
					}
				}
				JOINT newVegas:Collar_Back
				{
					OFFSET 0.000000 15.630707 -20.132601
					CHANNELS 3 Xrotation Yrotation Zrotation
					End Site
					{
						OFFSET 0.000000 22.523010 0.000000
					}
				}
				JOINT newVegas:Left_Peck
				{
					OFFSET 17.239599 -5.132599 25.482599
					CHANNELS 3 Xrotation Yrotation Zrotation
					End Site
					{
						OFFSET 0.000000 22.523010 0.000000
					}
				}
				JOINT newVegas:Right_Peck
				{
					OFFSET -17.239599 -5.132202 25.482599
					CHANNELS 3 Xrotation Yrotation Zrotation
					End Site
					{
						OFFSET 0.000000 22.523010 0.000000
					}
				}
				JOINT newVegas:Right_Collar
				{
					OFFSET -18.625099 8.655792 8.828100
					CHANNELS 3 Xrotation Yrotation Zrotation
					JOINT newVegas:Right_Collar1
					{
						OFFSET -14.783401 10.539993 -1.259500
						CHANNELS 3 Xrotation Yrotation Zrotation
						End Site
						{
							OFFSET 0.000000 18.199631 0.000000
						}
					}
				}
			}
		}
		JOINT newVegas:Belly
		{
			OFFSET 0.000000 -6.540398 9.014299
			CHANNELS 3 Xrotation Yrotation Zrotation
			End Site
			{
				OFFSET 0.000000 11.566666 0.000000
			}
		}
	}
	JOINT newVegas:ElvisFacialAnim_Joint
	{
		OFFSET 1.000000 -95.330101 -8.825800
		CHANNELS 3 Xrotation Yrotation Zrotation
		End Site
		{
			OFFSET 0.000000 35.315800 0.000000
		}
	}
}
MOTION
Frames: 4
Frame Time: 0.016667
1.585472 89.019730 -4.073636 1.623774 155.786288 1.863177 -0.000000 0.000001 0.000000 -26.909284 -8.348145 12.987156 27.875798 -0.959023 -1.107890 0.125870 -2.768197 -16.824568 0.000000 0.000002 -0.000000 0.000000 -0.000000 0.000000 -18.977971 -11.345319 -22.692571 44.800092 2.117219 1.788153 -22.724019 -9.831862 12.618357 -0.000000 -0.000002 0.000000 0.000001 0.000004 -0.000002 5.547813 -0.029679 -0.187511 11.095621 0.009769 -0.734627 11.095628 0.009765 -0.734625 -2.094171 -0.354144 -0.652391 -2.094144 -0.354147 -0.652391 0.000001 -0.000003 0.000001 -2.094154 -0.354118 -0.652395 -2.094081 -0.354152 -0.652391 -0.000000 -0.000002 0.000000 0.000001 -0.000003 0.000001 9.458516 -6.444348 -14.996468 -9.678080 10.609534 -35.777204 0.014658 -55.260971 0.179001 23.479001 -9.549553 10.015913 7.350842 -14.484222 -10.934843 -1.067066 0.182838 1.946096 -0.000000 -0.000001 -0.000003 5.776129 -9.584534 -10.641316 0.033761 0.666547 -10.636465 0.000001 0.000001 -0.000000 1.641874 7.127200 -4.239649 -0.187953 -0.789334 -15.969028 0.000002 -0.000001 0.000003 1.677303 11.039964 -8.046074 -0.183062 -2.876885 -23.912154 0.000001 -0.000001 0.000000 0.734588 28.047561 -16.218774 -0.849535 -6.142179 -29.148252 0.000001 0.000002 -0.000001 -0.000002 0.000000 -0.000001 -0.000002 0.000000 -0.000001 -0.000003 0.000000 -0.000001 -0.000003 0.000001 0.000001 -0.000002 0.000000 0.000001 -0.000003 0.000001 0.000001 -0.000004 0.000001 0.000001 -3.413065 0.044908 -0.357072 -8.509094 -11.385597 60.673581 -0.093511 56.136816 -0.118096 33.241352 -12.824969 -17.733586 -4.978390 12.391671 9.407255 -1.210143 -0.220449 -2.120999 -0.000000 -0.000000 -0.000000 10.258619 13.576548 6.067484 0.012528 -0.647885 4.076576 -0.000001 -0.000000 0.000001 -1.738474 -1.670995 3.393800 -0.252715 0.798109 21.448261 0.000000 -0.000000 0.000003 -0.824259 -13.700959 18.348851 -0.242212 2.213615 16.221197 -0.000000 0.000001 0.000000 -4.380751 -23.900599 30.060298 -0.233914 5.125296 12.870318 -0.000000 0.000003 -0.000000 0.000000 0.000001 -0.000002 0.000002 0.000001 -0.000002 0.000001 0.000001 -0.000002 -0.000001 0.000000 -0.000003 -0.000000 0.000001 -0.000001 -0.000001 0.000000 -0.000003 -0.000000 0.000001 0.000001 -0.000000 -0.000001 -0.000001 -0.000000 -0.000001 -0.000001 -0.000000 -0.000001 -0.000001 -0.000000 -0.000001 -0.000001 -0.000000 -0.000001 -0.000001 -0.000000 -0.000001 -0.000001 -0.000000 -0.000001 -0.000001 -0.000000 -0.000002 0.000000 -0.000000 0.000001 0.000000 
1.614309 88.869057 -4.022954 1.096270 154.837684 1.925751 -0.000000 -0.000001 0.000000 -27.767021 -7.257785 13.699294 29.034718 -1.015776 -1.153854 -0.627279 -3.177971 -16.725871 -0.000000 -0.000001 -0.000000 0.000000 0.000001 0.000000 -19.998847 -10.391621 -22.313217 45.335473 2.100277 1.803326 -22.631166 -9.682897 12.538724 0.000000 0.000001 -0.000000 0.000000 -0.000004 -0.000001 5.541160 -0.067816 -0.242439 11.081761 -0.077129 -0.835931 11.081765 -0.077131 -0.835930 -2.183162 -0.433093 -0.619568 -2.183146 -0.433087 -0.619575 -0.000001 -0.000001 0.000001 -2.183153 -0.433099 -0.619568 -2.183147 -0.433102 -0.619570 -0.000000 -0.000002 0.000000 -0.000001 -0.000001 0.000001 9.412425 -6.453412 -14.019423 -8.662124 10.477073 -35.400491 0.010218 -54.481943 0.179147 23.395507 -10.993402 10.180217 7.349522 -14.482214 -10.935199 -1.067017 0.182826 1.946026 -0.000000 -0.000001 -0.000004 5.776078 -9.584118 -10.640209 0.033755 0.666552 -10.636315 0.000001 -0.000001 0.000003 1.641813 7.127184 -4.239326 -0.187949 -0.789359 -15.968847 0.000000 0.000001 0.000002 1.677162 11.039879 -8.045504 -0.183066 -2.876813 -23.911722 -0.000001 0.000001 -0.000001 0.734506 28.047045 -16.218532 -0.849487 -6.142078 -29.147703 0.000001 -0.000005 -0.000002 -0.000000 0.000003 -0.000003 -0.000000 0.000003 -0.000003 -0.000001 0.000004 -0.000003 0.000000 0.000002 0.000001 0.000000 0.000001 0.000001 0.000000 0.000002 0.000001 -0.000001 0.000002 0.000001 -3.299630 0.252112 -0.421618 -8.140540 -9.974486 59.691837 -0.093568 55.025411 -0.121928 32.733067 -11.033748 -18.050325 -4.980121 12.389510 9.406435 -1.210078 -0.220412 -2.120942 -0.000002 -0.000005 0.000001 10.258460 13.576042 6.066716 0.012519 -0.647881 4.076575 -0.000000 -0.000002 -0.000000 -1.738411 -1.671050 3.393429 -0.252713 0.798103 21.447902 -0.000001 0.000001 0.000004 -0.824391 -13.700826 18.347118 -0.242222 2.213572 16.220914 -0.000000 0.000002 0.000002 -4.381146 -23.900184 30.057491 -0.233932 5.125193 12.870110 -0.000000 0.000003 -0.000002 0.000001 0.000002 -0.000001 -0.000000 -0.000002 0.000001 0.000002 0.000002 0.000002 -0.000002 0.000001 0.000002 -0.000001 0.000001 0.000003 -0.000002 0.000001 0.000002 -0.000001 0.000001 0.000004 -0.000000 -0.000001 0.000001 -0.000000 -0.000001 0.000001 -0.000000 -0.000001 0.000001 -0.000000 -0.000001 0.000001 -0.000000 -0.000001 0.000001 -0.000000 -0.000001 0.000001 -0.000000 -0.000001 0.000001 -0.000000 -0.000001 -0.000000 -0.000000 -0.000001 0.000000 
1.662197 88.631973 -3.948089 0.304106 153.445131 2.051508 0.000000 0.000001 -0.000000 -28.885266 -6.070480 14.654096 30.659606 -1.099751 -1.218563 -1.714671 -3.346065 -16.696850 0.000000 -0.000000 0.000000 0.000000 0.000002 0.000003 -21.514450 -9.078340 -21.803072 46.089085 2.077248 1.824730 -22.466883 -9.364118 12.441203 -0.000000 0.000002 0.000000 -0.000000 -0.000003 0.000000 5.532431 -0.105200 -0.306325 11.063668 -0.166390 -0.951348 11.063668 -0.166376 -0.951353 -2.262709 -0.510585 -0.589147 -2.262710 -0.510580 -0.589151 0.000002 -0.000000 -0.000001 -2.262637 -0.510588 -0.589148 -2.262711 -0.510577 -0.589151 -0.000001 -0.000001 -0.000000 0.000002 -0.000000 -0.000001 9.287392 -6.480146 -13.016980 -7.148102 10.286331 -34.868136 0.002826 -53.374397 0.177103 23.239200 -12.346993 10.353350 7.347643 -14.479381 -10.935731 -1.066963 0.182801 1.945969 -0.000000 -0.000001 -0.000001 5.775953 -9.583590 -10.639076 0.033766 0.666515 -10.636075 -0.000001 -0.000001 -0.000002 1.641739 7.127109 -4.238977 -0.187948 -0.789350 -15.968607 -0.000000 0.000000 -0.000002 1.677014 11.039714 -8.044920 -0.183045 -2.876738 -23.911084 -0.000000 0.000001 -0.000000 0.734413 28.046309 -16.218175 -0.849433 -6.141914 -29.146944 0.000001 -0.000002 -0.000002 0.000000 -0.000001 -0.000002 0.000000 -0.000001 -0.000002 -0.000001 -0.000001 -0.000002 0.000002 0.000000 0.000001 0.000002 -0.000001 -0.000001 0.000002 0.000000 0.000001 0.000000 0.000001 0.000001 -3.131420 0.557777 -0.519412 -7.620064 -7.972472 58.297290 -0.094659 53.382836 -0.125884 32.021457 -8.492659 -18.497068 -4.982267 12.386633 9.405929 -1.210023 -0.220400 -2.120853 -0.000001 -0.000003 0.000001 10.258148 13.575360 6.065989 0.012520 -0.647868 4.076545 -0.000000 0.000000 -0.000001 -1.738352 -1.671123 3.393036 -0.252694 0.798084 21.447375 -0.000001 -0.000000 0.000000 -0.824518 -13.700611 18.345301 -0.242220 2.213517 16.220519 -0.000001 0.000001 0.000003 -4.381538 -23.899573 30.054540 -0.233945 5.125055 12.869826 0.000001 0.000002 -0.000001 0.000001 0.000001 -0.000002 0.000002 -0.000000 0.000004 0.000001 0.000001 0.000001 -0.000002 0.000000 -0.000001 -0.000001 0.000000 -0.000000 -0.000002 0.000000 -0.000001 -0.000001 0.000000 0.000002 0.000000 0.000001 -0.000000 0.000000 0.000001 -0.000000 0.000000 0.000001 -0.000000 0.000000 0.000001 -0.000000 0.000000 0.000001 -0.000000 0.000000 0.000001 -0.000000 0.000000 0.000001 -0.000000 -0.000000 -0.000001 -0.000000 0.000000 0.000001 -0.000000 
1.748145 88.176292 -3.805820 -1.207652 150.841490 2.387959 -0.000000 -0.000001 -0.000000 -30.776245 -4.566498 16.289112 33.583863 -1.259231 -1.335248 -3.711876 -2.937334 -16.769586 -0.000000 -0.000000 0.000000 -0.000000 0.000002 -0.000001 -24.382624 -6.744415 -20.816940 47.440527 2.034680 1.862919 -22.106973 -8.690419 12.287966 -0.000000 0.000001 0.000000 0.000000 -0.000001 0.000002 5.517196 -0.140128 -0.396450 11.032440 -0.262064 -1.106975 11.032440 -0.262066 -1.106976 -2.316568 -0.583108 -0.564080 -2.316569 -0.583118 -0.564077 0.000003 0.000001 -0.000001 -2.316633 -0.583105 -0.564079 -2.316421 -0.583097 -0.564077 -0.000000 0.000001 -0.000001 0.000003 0.000001 -0.000000 8.947997 -6.559115 -11.945468 -4.288840 9.928082 -33.890903 -0.012137 -51.337020 0.169252 22.892540 -13.455980 10.544927 7.344180 -14.474173 -10.936678 -1.066920 0.182798 1.945930 0.000001 0.000000 0.000001 5.775588 -9.582673 -10.637824 0.033741 0.666480 -10.635704 -0.000000 -0.000001 0.000001 1.641611 7.126967 -4.238592 -0.187946 -0.789329 -15.968129 0.000000 0.000000 -0.000000 1.676802 11.039396 -8.044207 -0.183004 -2.876596 -23.909986 0.000000 -0.000001 0.000000 0.734200 28.044962 -16.217540 -0.849275 -6.141620 -29.145534 0.000000 0.000000 0.000000 0.000002 -0.000000 0.000001 0.000002 -0.000000 0.000001 0.000001 0.000000 0.000001 0.000002 0.000001 0.000003 0.000002 0.000000 0.000003 0.000002 0.000001 0.000003 0.000000 0.000002 0.000003 -2.814930 1.132005 -0.706646 -6.670052 -4.296612 55.732677 -0.098524 50.295942 -0.129488 30.742938 -3.827470 -19.312428 -4.985599 12.381775 9.406304 -1.209967 -0.220394 -2.120807 0.000000 0.000000 -0.000002 10.257424 13.574211 6.065339 0.012527 -0.647842 4.076510 0.000001 -0.000001 0.000003 -1.738272 -1.671269 3.392614 -0.252685 0.798067 21.446451 0.000001 -0.000001 0.000000 -0.824656 -13.700131 18.343226 -0.242204 2.213420 16.219811 -0.000001 0.000001 -0.000004 -4.381910 -23.898376 30.051224 -0.233913 5.124811 12.869284 0.000001 -0.000000 -0.000001 0.000001 0.000001 -0.000001 0.000001 0.000001 -0.000001 0.000001 0.000001 -0.000000 0.000002 -0.000002 -0.000000 0.000002 -0.000002 0.000001 0.000002 -0.000002 -0.000000 0.000002 -0.000002 0.000003 -0.000000 0.000001 -0.000001 -0.000000 0.000001 -0.000001 -0.000000 0.000001 -0.000001 -0.000000 0.000001 -0.000001 -0.000000 0.000001 -0.000001 -0.000000 0.000001 -0.000001 -0.000000 0.000001 -0.000001 0.000000 -0.000000 -0.000000 -0.000000 -0.000001 -0.000000 
